<svg width="135" height="26" viewBox="0 0 136 26" fill="none" xmlns="http://www.w3.org/2000/svg">
<rect width="135" height="26" rx="5" fill="#3730A3"/>
<path d="M12.428 18.198C11.9 18.198 11.354 18.15 10.79 18.054C10.238 17.958 9.734 17.796 9.278 17.568C9.038 17.448 8.864 17.298 8.756 17.118C8.66 16.926 8.618 16.734 8.63 16.542C8.642 16.35 8.702 16.176 8.81 16.02C8.93 15.864 9.08 15.762 9.26 15.714C9.452 15.654 9.662 15.672 9.89 15.768C10.382 15.972 10.832 16.116 11.24 16.2C11.648 16.284 12.05 16.326 12.446 16.326C12.962 16.326 13.334 16.248 13.562 16.092C13.802 15.924 13.922 15.708 13.922 15.444C13.922 15.204 13.844 15.024 13.688 14.904C13.532 14.784 13.304 14.7 13.004 14.652L11.114 14.31C10.37 14.178 9.794 13.908 9.386 13.5C8.99 13.08 8.792 12.546 8.792 11.898C8.792 11.298 8.96 10.782 9.296 10.35C9.632 9.906 10.094 9.57 10.682 9.342C11.282 9.102 11.96 8.982 12.716 8.982C13.256 8.982 13.754 9.03 14.21 9.126C14.666 9.222 15.104 9.378 15.524 9.594C15.74 9.702 15.89 9.846 15.974 10.026C16.07 10.206 16.1 10.392 16.064 10.584C16.04 10.776 15.968 10.95 15.848 11.106C15.728 11.262 15.572 11.364 15.38 11.412C15.2 11.46 14.99 11.436 14.75 11.34C14.366 11.16 14.012 11.034 13.688 10.962C13.364 10.878 13.052 10.836 12.752 10.836C12.212 10.836 11.822 10.926 11.582 11.106C11.342 11.274 11.222 11.49 11.222 11.754C11.222 11.958 11.288 12.132 11.42 12.276C11.564 12.408 11.78 12.498 12.068 12.546L13.958 12.888C14.738 13.02 15.332 13.284 15.74 13.68C16.148 14.064 16.352 14.592 16.352 15.264C16.352 16.176 15.992 16.896 15.272 17.424C14.564 17.94 13.616 18.198 12.428 18.198ZM20.8914 18.198C20.2434 18.198 19.6614 18.072 19.1454 17.82C18.6294 17.568 18.2274 17.226 17.9394 16.794C17.6514 16.362 17.5074 15.876 17.5074 15.336C17.5074 14.688 17.6754 14.178 18.0114 13.806C18.3474 13.422 18.8934 13.152 19.6494 12.996C20.4054 12.828 21.4074 12.744 22.6554 12.744H23.6094V14.148H22.6734C22.0614 14.148 21.5634 14.184 21.1794 14.256C20.8074 14.316 20.5374 14.424 20.3694 14.58C20.2134 14.736 20.1354 14.952 20.1354 15.228C20.1354 15.564 20.2494 15.84 20.4774 16.056C20.7174 16.272 21.0594 16.38 21.5034 16.38C21.8514 16.38 22.1574 16.302 22.4214 16.146C22.6974 15.978 22.9134 15.756 23.0694 15.48C23.2254 15.192 23.3034 14.868 23.3034 14.508V12.438C23.3034 11.91 23.1834 11.538 22.9434 11.322C22.7034 11.094 22.2954 10.98 21.7194 10.98C21.3954 10.98 21.0414 11.022 20.6574 11.106C20.2854 11.178 19.8714 11.304 19.4154 11.484C19.1514 11.604 18.9174 11.634 18.7134 11.574C18.5094 11.502 18.3534 11.382 18.2454 11.214C18.1374 11.034 18.0834 10.842 18.0834 10.638C18.0834 10.422 18.1434 10.218 18.2634 10.026C18.3834 9.822 18.5814 9.672 18.8574 9.576C19.4214 9.348 19.9494 9.192 20.4414 9.108C20.9454 9.024 21.4074 8.982 21.8274 8.982C22.7514 8.982 23.5074 9.12 24.0954 9.396C24.6954 9.66 25.1454 10.074 25.4454 10.638C25.7454 11.19 25.8954 11.904 25.8954 12.78V16.776C25.8954 17.22 25.7874 17.562 25.5714 17.802C25.3554 18.042 25.0434 18.162 24.6354 18.162C24.2274 18.162 23.9094 18.042 23.6814 17.802C23.4654 17.562 23.3574 17.22 23.3574 16.776V16.11L23.4834 16.218C23.4114 16.626 23.2554 16.98 23.0154 17.28C22.7874 17.568 22.4934 17.796 22.1334 17.964C21.7734 18.12 21.3594 18.198 20.8914 18.198ZM29.3269 18.162C28.8829 18.162 28.5409 18.042 28.3009 17.802C28.0729 17.562 27.9589 17.22 27.9589 16.776V10.386C27.9589 9.942 28.0729 9.606 28.3009 9.378C28.5409 9.138 28.8709 9.018 29.2909 9.018C29.7229 9.018 30.0529 9.138 30.2809 9.378C30.5089 9.606 30.6229 9.942 30.6229 10.386V11.538L30.4249 10.818C30.6649 10.266 31.0369 9.822 31.5409 9.486C32.0449 9.15 32.6389 8.982 33.3229 8.982C34.0069 8.982 34.5769 9.144 35.0329 9.468C35.4889 9.792 35.8129 10.29 36.0049 10.962H35.7529C36.0169 10.35 36.4189 9.87 36.9589 9.522C37.5109 9.162 38.1409 8.982 38.8489 8.982C39.5329 8.982 40.0909 9.12 40.5229 9.396C40.9669 9.66 41.2969 10.068 41.5129 10.62C41.7289 11.16 41.8369 11.85 41.8369 12.69V16.776C41.8369 17.22 41.7169 17.562 41.4769 17.802C41.2489 18.042 40.9189 18.162 40.4869 18.162C40.0429 18.162 39.7009 18.042 39.4609 17.802C39.2329 17.562 39.1189 17.22 39.1189 16.776V12.78C39.1189 12.192 39.0229 11.766 38.8309 11.502C38.6509 11.226 38.3389 11.088 37.8949 11.088C37.3789 11.088 36.9769 11.268 36.6889 11.628C36.4009 11.988 36.2569 12.498 36.2569 13.158V16.776C36.2569 17.22 36.1369 17.562 35.8969 17.802C35.6689 18.042 35.3389 18.162 34.9069 18.162C34.4749 18.162 34.1389 18.042 33.8989 17.802C33.6589 17.562 33.5389 17.22 33.5389 16.776V12.78C33.5389 12.192 33.4429 11.766 33.2509 11.502C33.0709 11.226 32.7589 11.088 32.3149 11.088C31.7989 11.088 31.3969 11.268 31.1089 11.628C30.8209 11.988 30.6769 12.498 30.6769 13.158V16.776C30.6769 17.7 30.2269 18.162 29.3269 18.162ZM45.287 21.402C44.843 21.402 44.501 21.282 44.261 21.042C44.033 20.814 43.919 20.472 43.919 20.016V10.386C43.919 9.942 44.033 9.606 44.261 9.378C44.501 9.138 44.831 9.018 45.251 9.018C45.695 9.018 46.031 9.138 46.259 9.378C46.487 9.606 46.601 9.942 46.601 10.386V11.61L46.403 10.908C46.583 10.332 46.943 9.87 47.483 9.522C48.035 9.162 48.665 8.982 49.373 8.982C50.141 8.982 50.813 9.168 51.389 9.54C51.977 9.912 52.433 10.44 52.757 11.124C53.081 11.808 53.243 12.624 53.243 13.572C53.243 14.52 53.081 15.342 52.757 16.038C52.433 16.734 51.983 17.268 51.407 17.64C50.831 18.012 50.153 18.198 49.373 18.198C48.677 18.198 48.059 18.03 47.519 17.694C46.979 17.346 46.613 16.896 46.421 16.344H46.637V20.016C46.637 20.472 46.517 20.814 46.277 21.042C46.049 21.282 45.719 21.402 45.287 21.402ZM48.563 16.164C48.947 16.164 49.283 16.068 49.571 15.876C49.871 15.684 50.099 15.402 50.255 15.03C50.423 14.646 50.507 14.16 50.507 13.572C50.507 12.696 50.327 12.054 49.967 11.646C49.607 11.226 49.139 11.016 48.563 11.016C48.179 11.016 47.837 11.106 47.537 11.286C47.249 11.466 47.021 11.748 46.853 12.132C46.685 12.504 46.601 12.984 46.601 13.572C46.601 14.448 46.781 15.102 47.141 15.534C47.501 15.954 47.975 16.164 48.563 16.164ZM58.0913 18.198C57.0233 18.198 56.2253 17.904 55.6973 17.316C55.1693 16.716 54.9053 15.828 54.9053 14.652V6.534C54.9053 6.078 55.0193 5.736 55.2473 5.508C55.4873 5.268 55.8293 5.148 56.2733 5.148C56.7053 5.148 57.0353 5.268 57.2633 5.508C57.5033 5.736 57.6233 6.078 57.6233 6.534V14.544C57.6233 15.036 57.7253 15.402 57.9293 15.642C58.1453 15.87 58.4273 15.984 58.7753 15.984C58.8713 15.984 58.9613 15.978 59.0453 15.966C59.1293 15.954 59.2193 15.948 59.3153 15.948C59.5073 15.924 59.6393 15.984 59.7113 16.128C59.7953 16.26 59.8373 16.53 59.8373 16.938C59.8373 17.298 59.7653 17.574 59.6213 17.766C59.4773 17.946 59.2553 18.066 58.9553 18.126C58.8353 18.138 58.6973 18.15 58.5413 18.162C58.3853 18.186 58.2353 18.198 58.0913 18.198ZM65.4016 18.198C64.3576 18.198 63.4576 18.012 62.7016 17.64C61.9576 17.256 61.3816 16.722 60.9736 16.038C60.5776 15.342 60.3796 14.526 60.3796 13.59C60.3796 12.678 60.5716 11.88 60.9556 11.196C61.3396 10.5 61.8736 9.96 62.5576 9.576C63.2536 9.18 64.0396 8.982 64.9156 8.982C65.5516 8.982 66.1276 9.09 66.6436 9.306C67.1596 9.51 67.6036 9.81 67.9756 10.206C68.3476 10.59 68.6296 11.064 68.8216 11.628C69.0136 12.18 69.1096 12.798 69.1096 13.482C69.1096 13.71 69.0376 13.884 68.8936 14.004C68.7496 14.112 68.5396 14.166 68.2636 14.166H62.6116V12.762H67.1476L66.8596 13.014C66.8596 12.522 66.7876 12.114 66.6436 11.79C66.4996 11.454 66.2896 11.202 66.0136 11.034C65.7496 10.866 65.4196 10.782 65.0236 10.782C64.5796 10.782 64.2016 10.884 63.8896 11.088C63.5776 11.292 63.3376 11.586 63.1696 11.97C63.0016 12.354 62.9176 12.816 62.9176 13.356V13.5C62.9176 14.412 63.1276 15.084 63.5476 15.516C63.9796 15.948 64.6156 16.164 65.4556 16.164C65.7436 16.164 66.0736 16.128 66.4456 16.056C66.8176 15.984 67.1656 15.87 67.4896 15.714C67.7656 15.582 68.0116 15.54 68.2276 15.588C68.4436 15.624 68.6116 15.72 68.7316 15.876C68.8516 16.032 68.9176 16.212 68.9296 16.416C68.9536 16.62 68.9116 16.824 68.8036 17.028C68.6956 17.22 68.5156 17.382 68.2636 17.514C67.8556 17.742 67.3936 17.91 66.8776 18.018C66.3736 18.138 65.8816 18.198 65.4016 18.198ZM80.0198 18.198C79.0598 18.198 78.2198 18.012 77.4998 17.64C76.7918 17.256 76.2458 16.716 75.8618 16.02C75.4778 15.324 75.2858 14.502 75.2858 13.554C75.2858 12.846 75.3938 12.21 75.6098 11.646C75.8258 11.082 76.1378 10.602 76.5458 10.206C76.9658 9.81 77.4698 9.51 78.0578 9.306C78.6458 9.09 79.2998 8.982 80.0198 8.982C80.3918 8.982 80.7878 9.03 81.2078 9.126C81.6278 9.21 82.0418 9.36 82.4498 9.576C82.6898 9.684 82.8518 9.84 82.9358 10.044C83.0318 10.236 83.0678 10.44 83.0438 10.656C83.0198 10.86 82.9418 11.046 82.8098 11.214C82.6898 11.37 82.5338 11.478 82.3418 11.538C82.1498 11.586 81.9338 11.55 81.6938 11.43C81.4658 11.298 81.2258 11.202 80.9738 11.142C80.7338 11.082 80.5058 11.052 80.2898 11.052C79.9298 11.052 79.6118 11.112 79.3358 11.232C79.0598 11.34 78.8258 11.502 78.6338 11.718C78.4538 11.922 78.3098 12.18 78.2018 12.492C78.1058 12.804 78.0578 13.164 78.0578 13.572C78.0578 14.364 78.2498 14.988 78.6338 15.444C79.0298 15.888 79.5818 16.11 80.2898 16.11C80.5058 16.11 80.7338 16.086 80.9738 16.038C81.2138 15.978 81.4538 15.882 81.6938 15.75C81.9338 15.63 82.1498 15.6 82.3418 15.66C82.5338 15.72 82.6838 15.834 82.7918 16.002C82.9118 16.158 82.9778 16.344 82.9898 16.56C83.0138 16.764 82.9778 16.968 82.8818 17.172C82.7978 17.364 82.6418 17.514 82.4138 17.622C82.0058 17.826 81.5978 17.97 81.1898 18.054C80.7818 18.15 80.3918 18.198 80.0198 18.198ZM88.3857 18.198C87.4378 18.198 86.6098 18.012 85.9018 17.64C85.2058 17.268 84.6658 16.734 84.2817 16.038C83.8978 15.342 83.7058 14.52 83.7058 13.572C83.7058 12.864 83.8138 12.228 84.0298 11.664C84.2458 11.1 84.5578 10.62 84.9658 10.224C85.3858 9.816 85.8838 9.51 86.4598 9.306C87.0358 9.09 87.6778 8.982 88.3857 8.982C89.3338 8.982 90.1558 9.168 90.8518 9.54C91.5598 9.912 92.1058 10.44 92.4898 11.124C92.8858 11.808 93.0838 12.624 93.0838 13.572C93.0838 14.292 92.9698 14.934 92.7418 15.498C92.5258 16.062 92.2138 16.548 91.8058 16.956C91.3978 17.364 90.8998 17.676 90.3118 17.892C89.7358 18.096 89.0938 18.198 88.3857 18.198ZM88.3857 16.164C88.7818 16.164 89.1238 16.068 89.4118 15.876C89.6998 15.684 89.9278 15.402 90.0958 15.03C90.2638 14.646 90.3478 14.16 90.3478 13.572C90.3478 12.696 90.1678 12.054 89.8078 11.646C89.4478 11.226 88.9738 11.016 88.3857 11.016C88.0018 11.016 87.6598 11.106 87.3598 11.286C87.0718 11.466 86.8438 11.748 86.6758 12.132C86.5198 12.504 86.4418 12.984 86.4418 13.572C86.4418 14.448 86.6218 15.102 86.9818 15.534C87.3418 15.954 87.8098 16.164 88.3857 16.164ZM96.7015 18.162C96.2575 18.162 95.9155 18.042 95.6755 17.802C95.4475 17.562 95.3335 17.22 95.3335 16.776V11.196H94.6855C94.3495 11.196 94.0855 11.106 93.8935 10.926C93.7135 10.746 93.6235 10.5 93.6235 10.188C93.6235 9.852 93.7135 9.6 93.8935 9.432C94.0855 9.252 94.3495 9.162 94.6855 9.162H96.1255L95.3335 9.882V9.324C95.3335 8.04 95.6515 7.08 96.2875 6.444C96.9355 5.808 97.8835 5.424 99.1315 5.292L99.7075 5.238C100.019 5.214 100.265 5.262 100.445 5.382C100.637 5.502 100.763 5.658 100.823 5.85C100.883 6.042 100.895 6.24 100.859 6.444C100.823 6.636 100.739 6.81 100.607 6.966C100.487 7.11 100.319 7.188 100.103 7.2L99.8515 7.218C99.2035 7.266 98.7415 7.422 98.4655 7.686C98.1895 7.938 98.0515 8.328 98.0515 8.856V9.468L97.7095 9.162H99.3295C99.6775 9.162 99.9415 9.252 100.121 9.432C100.301 9.6 100.391 9.852 100.391 10.188C100.391 10.5 100.301 10.746 100.121 10.926C99.9415 11.106 99.6775 11.196 99.3295 11.196H98.0515V16.776C98.0515 17.7 97.6015 18.162 96.7015 18.162ZM103.1 18.162C102.656 18.162 102.314 18.042 102.074 17.802C101.846 17.562 101.732 17.22 101.732 16.776V11.196H101.084C100.748 11.196 100.484 11.106 100.292 10.926C100.112 10.746 100.022 10.5 100.022 10.188C100.022 9.852 100.112 9.6 100.292 9.432C100.484 9.252 100.748 9.162 101.084 9.162H102.524L101.732 9.882V9.324C101.732 8.04 102.05 7.08 102.686 6.444C103.334 5.808 104.282 5.424 105.53 5.292L106.106 5.238C106.418 5.214 106.664 5.262 106.844 5.382C107.036 5.502 107.162 5.658 107.222 5.85C107.282 6.042 107.294 6.24 107.258 6.444C107.222 6.636 107.138 6.81 107.006 6.966C106.886 7.11 106.718 7.188 106.502 7.2L106.25 7.218C105.602 7.266 105.14 7.422 104.864 7.686C104.588 7.938 104.45 8.328 104.45 8.856V9.468L104.108 9.162H105.728C106.076 9.162 106.34 9.252 106.52 9.432C106.7 9.6 106.79 9.852 106.79 10.188C106.79 10.5 106.7 10.746 106.52 10.926C106.34 11.106 106.076 11.196 105.728 11.196H104.45V16.776C104.45 17.7 104 18.162 103.1 18.162ZM112.3 18.198C111.256 18.198 110.356 18.012 109.6 17.64C108.856 17.256 108.28 16.722 107.872 16.038C107.476 15.342 107.278 14.526 107.278 13.59C107.278 12.678 107.47 11.88 107.854 11.196C108.238 10.5 108.772 9.96 109.456 9.576C110.152 9.18 110.938 8.982 111.814 8.982C112.45 8.982 113.026 9.09 113.542 9.306C114.058 9.51 114.502 9.81 114.874 10.206C115.246 10.59 115.528 11.064 115.72 11.628C115.912 12.18 116.008 12.798 116.008 13.482C116.008 13.71 115.936 13.884 115.792 14.004C115.648 14.112 115.438 14.166 115.162 14.166H109.51V12.762H114.046L113.758 13.014C113.758 12.522 113.686 12.114 113.542 11.79C113.398 11.454 113.188 11.202 112.912 11.034C112.648 10.866 112.318 10.782 111.922 10.782C111.478 10.782 111.1 10.884 110.788 11.088C110.476 11.292 110.236 11.586 110.068 11.97C109.9 12.354 109.816 12.816 109.816 13.356V13.5C109.816 14.412 110.026 15.084 110.446 15.516C110.878 15.948 111.514 16.164 112.354 16.164C112.642 16.164 112.972 16.128 113.344 16.056C113.716 15.984 114.064 15.87 114.388 15.714C114.664 15.582 114.91 15.54 115.126 15.588C115.342 15.624 115.51 15.72 115.63 15.876C115.75 16.032 115.816 16.212 115.828 16.416C115.852 16.62 115.81 16.824 115.702 17.028C115.594 17.22 115.414 17.382 115.162 17.514C114.754 17.742 114.292 17.91 113.776 18.018C113.272 18.138 112.78 18.198 112.3 18.198ZM122.179 18.198C121.135 18.198 120.235 18.012 119.479 17.64C118.735 17.256 118.159 16.722 117.751 16.038C117.355 15.342 117.157 14.526 117.157 13.59C117.157 12.678 117.349 11.88 117.733 11.196C118.117 10.5 118.651 9.96 119.335 9.576C120.031 9.18 120.817 8.982 121.693 8.982C122.329 8.982 122.905 9.09 123.421 9.306C123.937 9.51 124.381 9.81 124.753 10.206C125.125 10.59 125.407 11.064 125.599 11.628C125.791 12.18 125.887 12.798 125.887 13.482C125.887 13.71 125.815 13.884 125.671 14.004C125.527 14.112 125.317 14.166 125.041 14.166H119.389V12.762H123.925L123.637 13.014C123.637 12.522 123.565 12.114 123.421 11.79C123.277 11.454 123.067 11.202 122.791 11.034C122.527 10.866 122.197 10.782 121.801 10.782C121.357 10.782 120.979 10.884 120.667 11.088C120.355 11.292 120.115 11.586 119.947 11.97C119.779 12.354 119.695 12.816 119.695 13.356V13.5C119.695 14.412 119.905 15.084 120.325 15.516C120.757 15.948 121.393 16.164 122.233 16.164C122.521 16.164 122.851 16.128 123.223 16.056C123.595 15.984 123.943 15.87 124.267 15.714C124.543 15.582 124.789 15.54 125.005 15.588C125.221 15.624 125.389 15.72 125.509 15.876C125.629 16.032 125.695 16.212 125.707 16.416C125.731 16.62 125.689 16.824 125.581 17.028C125.473 17.22 125.293 17.382 125.041 17.514C124.633 17.742 124.171 17.91 123.655 18.018C123.151 18.138 122.659 18.198 122.179 18.198Z" fill="#FEF08A"/>
</svg>
